M48
;DRILL file {KiCad (5.0.2)-1} date 02.06.2020 11:15:51
;FORMAT={2:4/ absolute / inch / suppress leading zeros}
FMAT,2
INCH,TZ
T1C0.0250
T2C0.0315
T3C0.0394
%
G90
G05
T1
X37800Y-45900
X39100Y-45700
X39200Y-51800
X39700Y-40800
X41600Y-41100
X43400Y-51500
X45100Y-48800
X45800Y-48100
X46100Y-40700
X46300Y-44400
X48000Y-30400
X48100Y-48200
X49000Y-51400
X49300Y-42400
X49500Y-37300
X50700Y-47300
X51100Y-42100
X51900Y-40500
X52700Y-54900
X53000Y-51500
X53400Y-47500
X53500Y-46000
X54400Y-36900
X54800Y-30800
X55000Y-33300
X55600Y-31400
X56600Y-52700
X57000Y-30000
X57000Y-44200
X57600Y-34000
X57700Y-47100
X59300Y-30500
X59900Y-42600
X62600Y-40900
X62900Y-30600
X62900Y-48400
X64700Y-42300
X64800Y-39500
X65200Y-44400
X65500Y-55500
X66200Y-54000
X67000Y-30300
X67300Y-42700
X68100Y-44600
X69200Y-53300
X69400Y-44500
X70100Y-54700
X71000Y-41100
X71200Y-48100
X72000Y-30300
X73200Y-44700
X73800Y-29700
X75300Y-48100
X75900Y-37000
X78900Y-40700
X81200Y-35200
X81300Y-43200
T2
X79700Y-49300
X79700Y-51269
X41600Y-30000
X41600Y-30984
X67000Y-28600
X67000Y-32600
X78100Y-45000
X78100Y-46969
X68431Y-30800
X70400Y-30800
X54300Y-39500
X54300Y-43500
X74700Y-46600
X74700Y-50600
X78800Y-37900
X80769Y-37900
X52700Y-28500
X52700Y-32500
X67800Y-34200
X67800Y-35200
X67800Y-36200
X67800Y-37200
X67800Y-38200
X67800Y-39200
X67800Y-40200
X70800Y-34200
X70800Y-35200
X70800Y-36200
X70800Y-37200
X70800Y-38200
X70800Y-39200
X70800Y-40200
X37600Y-33700
X37600Y-37700
X45700Y-49700
X46700Y-48700
X46700Y-50700
X40300Y-55600
X44300Y-55600
X54300Y-34100
X54300Y-38100
X60700Y-34100
X60700Y-38100
X66200Y-39500
X66200Y-43500
X63700Y-47400
X63700Y-51400
X51700Y-45900
X52700Y-44900
X52700Y-46900
X57131Y-32200
X59100Y-32200
X70300Y-45500
X70300Y-48500
X77100Y-39600
X77100Y-43600
X48200Y-37131
X48200Y-39100
X56700Y-45516
X56700Y-46500
X66500Y-52900
X70500Y-52900
X79100Y-29500
X79100Y-33500
X75700Y-34031
X75700Y-36000
X62200Y-47300
X62200Y-51300
X72000Y-28500
X72000Y-32500
X39900Y-50900
X40900Y-49900
X40900Y-51900
X42400Y-33900
X42400Y-37900
X60700Y-28500
X60700Y-32500
X63800Y-34100
X63800Y-38100
X58600Y-50800
X59600Y-51800
X60600Y-50800
X38600Y-50000
X38600Y-54000
X77516Y-55400
X78500Y-55400
X65100Y-50800
X65100Y-53800
X43800Y-39500
X43800Y-43500
X45500Y-56500
X46500Y-55500
X47500Y-56500
X65400Y-28531
X65400Y-30500
X36931Y-55500
X38900Y-55500
X75500Y-37900
X77469Y-37900
X80200Y-43200
X80200Y-47200
X48200Y-28600
X48200Y-32600
X72500Y-38431
X72500Y-40400
X49600Y-39500
X49600Y-43500
X78600Y-39600
X78600Y-43600
X62300Y-36131
X62300Y-38100
X37400Y-44800
X37400Y-48800
X43900Y-33900
X43900Y-37900
X44100Y-45400
X44100Y-47369
X74100Y-34000
X74100Y-38000
X53900Y-55100
X57900Y-55100
X45400Y-29800
X46400Y-28800
X46400Y-30800
X40900Y-39300
X40900Y-43300
X42000Y-47416
X42000Y-48400
X59500Y-53400
X63500Y-53400
X45400Y-36800
X46400Y-35800
X46400Y-37800
X68331Y-43800
X70300Y-43800
X40216Y-53600
X41200Y-53600
X63800Y-28400
X63800Y-32400
X65500Y-45500
X67469Y-45500
X74531Y-45200
X76500Y-45200
X50400Y-44800
X50400Y-48800
X66500Y-51300
X70500Y-51300
X67100Y-47700
X67100Y-49669
X71800Y-42300
X71800Y-44300
X72800Y-43300
X48900Y-46400
X48900Y-50400
X52800Y-34200
X52800Y-36169
X74100Y-39600
X74100Y-43600
X44200Y-49900
X44200Y-53900
X48100Y-53100
X49100Y-52100
X49100Y-54100
X53900Y-56700
X57900Y-56700
X75800Y-29700
X76800Y-28700
X76800Y-30700
X68800Y-45400
X68800Y-49400
X59000Y-45100
X59000Y-49100
X45400Y-33100
X46400Y-32100
X46400Y-34100
X55531Y-41600
X57500Y-41600
X48200Y-40500
X48200Y-43500
X62200Y-39500
X62200Y-43500
X76200Y-51200
X78169Y-51200
X77500Y-31831
X77500Y-33800
X46800Y-39500
X46800Y-43500
X52900Y-39500
X52900Y-43500
X60600Y-45100
X60600Y-49100
X63800Y-39500
X63800Y-41469
X54300Y-47800
X54300Y-51800
X56000Y-34000
X56000Y-35000
X56000Y-36000
X56000Y-37000
X56000Y-38000
X56000Y-39000
X56000Y-40000
X59000Y-34000
X59000Y-35000
X59000Y-36000
X59000Y-37000
X59000Y-38000
X59000Y-39000
X59000Y-40000
X45600Y-53100
X46600Y-52100
X46600Y-54100
X37400Y-50000
X37400Y-54000
X54200Y-28500
X54200Y-32500
X62300Y-28500
X62300Y-32500
X80500Y-32400
X80500Y-36400
X51000Y-53100
X52000Y-52100
X52000Y-54100
X39200Y-33700
X39200Y-37700
X68331Y-42000
X70300Y-42000
X57300Y-48600
X57300Y-51600
X73300Y-28500
X73300Y-32500
X68431Y-32500
X70400Y-32500
X52500Y-48100
X52500Y-50069
X45300Y-39500
X45300Y-43500
X49700Y-28500
X49700Y-32500
X72500Y-34000
X72500Y-35969
X51200Y-28500
X51200Y-32500
X55700Y-43300
X57669Y-43300
X39400Y-39300
X39400Y-43300
X45600Y-46400
X46600Y-45400
X46600Y-47400
X51200Y-34200
X51200Y-38200
X74500Y-28500
X74500Y-32500
X53900Y-53500
X57900Y-53500
X71700Y-46800
X72700Y-45800
X72700Y-47800
X37800Y-39300
X37800Y-43300
X65400Y-37400
X66384Y-37400
X76100Y-46600
X76100Y-49600
X42400Y-39500
X42400Y-43500
X49100Y-56500
X50100Y-55500
X51100Y-56500
X65900Y-33431
X65900Y-35400
X40900Y-44816
X40900Y-45800
X72300Y-51600
X73284Y-51600
X60700Y-39500
X60700Y-43500
X65400Y-47631
X65400Y-49600
X68400Y-28900
X70369Y-28900
X51200Y-39500
X51200Y-43500
X75300Y-52900
X79300Y-52900
X62131Y-45500
X64100Y-45500
X80100Y-40900
X81100Y-39900
X81100Y-41900
X55700Y-28500
X55700Y-32500
X49600Y-34231
X49600Y-36200
X75600Y-39600
X75600Y-43600
X42700Y-49900
X42700Y-53900
X77200Y-35400
X78200Y-36400
X79200Y-35400
X59400Y-54900
X63400Y-54900
X39100Y-46731
X39100Y-48700
X55700Y-47900
X55700Y-51900
X57100Y-29000
X58100Y-30000
X59100Y-29000
T3
X77800Y-49100
X80700Y-30500
X52800Y-37700
X59000Y-41500
X48900Y-44700
X63800Y-43100
X40800Y-37600
X54500Y-45000
X60300Y-56700
X66800Y-55600
X66800Y-56600
X67800Y-55600
X67800Y-56600
X68800Y-55600
X68800Y-56600
X69800Y-55600
X69800Y-56600
X70800Y-55600
X70800Y-56600
X71800Y-55600
X71800Y-56600
X72800Y-55600
X72800Y-56600
X73800Y-55600
X73800Y-56600
X40800Y-35100
X59000Y-43400
X72100Y-49200
X62300Y-34500
X50600Y-50400
X75700Y-32400
T0
M30
